<svg xmlns="http://www.w3.org/2000/svg" viewBox="0 0 1200 900" role="img" aria-label="Music in Retirement">
  <defs>
    <linearGradient id="bg" x1="0" y1="0" x2="1" y2="1">
      <stop offset="0%" stop-color="#5e463a" />
      <stop offset="100%" stop-color="#d4b699" />
    </linearGradient>
    <radialGradient id="glow" cx="0.3" cy="0.25" r="0.8">
      <stop offset="0%" stop-color="#ffffff" stop-opacity="0.45" />
      <stop offset="100%" stop-color="#ffffff" stop-opacity="0" />
    </radialGradient>
  </defs>
  <rect width="1200" height="900" fill="url(#bg)" />
  <rect x="48" y="48" width="1104" height="804" rx="36" fill="none" stroke="#f7efe6" stroke-opacity="0.34" stroke-width="2" />
  <circle cx="270" cy="240" r="180" fill="url(#glow)" />
  <circle cx="920" cy="220" r="150" fill="#f6e1cd" fill-opacity="0.24" />
  <circle cx="960" cy="690" r="210" fill="#000000" fill-opacity="0.12" />
  <path d="M110 650C220 540 360 500 470 540C560 572 640 660 760 660C884 660 960 574 1090 452" fill="none" stroke="#f9f3ea" stroke-opacity="0.65" stroke-width="4" stroke-linecap="round" />
  <path d="M128 698C236 612 366 592 464 626C568 662 678 748 804 742C928 736 1020 660 1090 594" fill="none" stroke="#f9f3ea" stroke-opacity="0.34" stroke-width="2" stroke-linecap="round" />
  <g transform="translate(126 142)">
    <rect x="0" y="0" width="268" height="44" rx="22" fill="#fff8ef" fill-opacity="0.16" stroke="#fff8ef" stroke-opacity="0.28" />
    <text x="26" y="28" fill="#fffaf5" font-family="Georgia, serif" font-size="18" letter-spacing="4">TRIBUTE PLACEHOLDER</text>
  </g>
  <text x="126" y="730" fill="#fffaf5" font-family="Georgia, serif" font-size="72">Music in Retirement</text>
  <text x="126" y="790" fill="#fff8ef" fill-opacity="0.74" font-family="Arial, sans-serif" font-size="24" letter-spacing="3">Replace with a real family photograph when ready</text>
</svg>